<?xml version="1.0" encoding="UTF-8"?>
<svg width="100px" height="100px" viewBox="0 0 100 100" version="1.1" xmlns="http://www.w3.org/2000/svg" xmlns:xlink="http://www.w3.org/1999/xlink">
    <title>Group</title>
    <g id="Symbols" stroke="none" stroke-width="1" fill="none" fill-rule="evenodd">
        <g id="Group">
            <rect id="Rectangle" fill="#FFFFFF" x="0" y="0" width="100" height="100" rx="50"></rect>
            <g id="logo_dark" transform="translate(18.000000, 16.100000)" fill="#000000" fill-rule="nonzero">
                <path d="M25.9993416,0.9 L26,13.5580369 C17.8858048,16.1693329 12.0000424,23.9365126 12.0000424,33.112223 C12.0000424,42.2879334 17.8858048,50.0551131 26,52.6664091 L25.9996079,65.9 L2.09928202,65.9 C0.939880576,65.9 0,64.9369848 0,63.7490454 L0,31.0629869 L0.0615005539,31.062715 C0.969463473,15.9786381 11.8311455,3.6541257 25.9993416,0.9 Z M63.8331568,29.9 C63.9434786,31.0205808 64,32.1576679 64,33.3084408 C64,49.503874 52.8051421,62.9886763 38,65.9 L38.0003905,53.0927748 C46.1144637,50.4507445 52.0001378,42.592147 52.0001378,33.3084408 L51.9981202,33.1869009 L63.8331568,29.9 Z M38,0.9 C47.5814131,2.76020122 55.6242446,9.06927006 60,17.648626 L48.148163,20.9 C45.6916315,17.3541724 42.1412769,14.6580919 38.0003837,13.3268856 L38,0.9 Z" id="Combined-Shape"></path>
            </g>
        </g>
    </g>
</svg>