<?xml version="1.0" encoding="UTF-8"?>
<svg width="61px" height="61px" viewBox="0 0 61 61" version="1.1" xmlns="http://www.w3.org/2000/svg" xmlns:xlink="http://www.w3.org/1999/xlink">
    <!-- Generator: Sketch 59 (86127) - https://sketch.com -->
    <title>Logo Dark</title>
    <desc>Created with Sketch.</desc>
    <g id="Page-1" stroke="none" stroke-width="1" fill="none" fill-rule="evenodd">
        <g id="Colored---" transform="translate(-186.000000, -250.000000)" fill="#000000">
            <g id="Logo-Dark" transform="translate(186.000000, 250.000000)">
                <path d="M24.7697463,0.000135602977 L24.7703736,11.7698278 C17.0399257,14.1978623 11.4325205,21.4199391 11.4325205,29.9516955 C11.4325205,38.4834519 17.0399257,45.7055287 24.7703736,48.1335632 L24.77,60.438 L2,60.4384169 C0.8954305,60.4384169 -1.42108547e-14,59.5429864 -1.0658141e-14,58.4384169 L0,28.0462754 L0.0585919883,28.0460226 C0.923614324,14.0205505 11.2716113,2.56097597 24.7697463,0.000135602977 Z M60.8144878,26.8193273 C60.9195937,27.8491447 60.9734428,28.8941315 60.9734428,29.9516955 C60.9734428,44.8353516 50.3078667,57.227929 36.2026971,59.903445 L36.2030691,48.1335632 C43.933517,45.7055287 49.5409222,38.4834519 49.5409222,29.9516955 L49.539,29.84 Z M36.2026971,-5.39779709e-05 C45.4910879,1.76179924 53.2879506,7.73731044 57.5298851,15.8630797 L46.0405053,18.942555 C43.6591003,15.5841937 40.217324,13.0306538 36.2030691,11.7698278 Z" id="Combined-Shape"></path>
            </g>
        </g>
    </g>
</svg>