<?xml version="1.0" encoding="UTF-8"?>
<svg width="268px" height="61px" viewBox="0 0 268 61" version="1.1" xmlns="http://www.w3.org/2000/svg" xmlns:xlink="http://www.w3.org/1999/xlink">
    <!-- Generator: Sketch 51.2 (57519) - http://www.bohemiancoding.com/sketch -->
    <title>Logo</title>
    <desc>Created with Sketch.</desc>
    <defs></defs>
    <g id="Page-1" stroke="none" stroke-width="1" fill="none" fill-rule="evenodd">
        <g id="Colored---" transform="translate(-84.000000, -171.000000)" fill="#000000">
            <g id="Logo" transform="translate(84.000000, 171.000000)">
                <path d="M36.2029816,59.903391 L36.2029816,48.1335907 C43.9334747,45.7055832 49.5409222,38.4834841 49.5409222,29.9516955 C49.5409222,29.9145828 49.5408161,29.8774949 49.5406042,29.840432 L60.8145153,26.8195966 C60.9196027,27.8493202 60.9734428,28.8942203 60.9734428,29.9516955 C60.9734428,44.8352515 50.3080101,57.2277623 36.2029816,59.903391 Z M24.7704611,60.4384169 L11.4325205,60.4384169 L2,60.4384169 C0.8954305,60.4384169 1.3527075e-16,59.5429864 0,58.4384169 L0,28.0462754 L0.058576394,28.0462754 C0.923505217,14.0204407 11.2718955,2.56058679 24.7704611,1.27675648e-15 L24.7704611,11.7698003 C17.039968,14.1978078 11.4325205,21.4199069 11.4325205,29.9516955 C11.4325205,38.4834841 17.039968,45.7055832 24.7704611,48.1335907 L24.7704611,60.4384169 Z M36.2029816,2.60902411e-15 C45.4915195,1.76197295 53.2884511,7.73774386 57.5302583,15.8637945 L46.0404514,18.942479 C43.659031,15.5841308 40.2172437,13.0306072 36.2029816,11.7698003 L36.2029816,2.66453526e-15 Z" id="Combined-Shape"></path>
                <path d="M110.746094,53.9804688 C109.574213,53.9414061 108.77344,53.5800815 108.34375,52.8964844 C107.91406,52.2128872 107.660157,51.2656311 107.582031,50.0546875 C107.503906,48.8437439 107.542968,47.4082114 107.699219,45.7480469 C107.85547,44.0878823 107.933594,42.2812598 107.933594,40.328125 C107.972656,36.4609182 108.119139,32.9355628 108.373047,29.7519531 C108.626954,26.5683435 108.695313,23.4726713 108.578125,20.4648438 L108.578125,19.8203125 C108.578125,19.624999 108.558594,19.4296885 108.519531,19.234375 C108.324218,19.8984408 108.099611,20.6503864 107.845703,21.4902344 C107.591796,22.3300823 107.289064,23.2578074 106.9375,24.2734375 C106.234371,26.4609484 105.541019,28.7070197 104.857422,31.0117188 C104.173825,33.3164178 103.509769,35.5527235 102.865234,37.7207031 C102.2207,39.8886827 101.615237,41.9003813 101.048828,43.7558594 C100.482419,45.6113374 99.9843771,47.1640563 99.5546875,48.4140625 C99.1249979,49.6640687 98.7050802,50.5917938 98.2949219,51.1972656 C97.8847636,51.8027374 97.4746114,52.2226551 97.0644531,52.4570312 C96.6542948,52.6914074 96.2441427,52.7890627 95.8339844,52.75 C95.4238261,52.7109373 95.0234395,52.6718752 94.6328125,52.6328125 C94.4765617,51.3046809 94.1835959,49.7421965 93.7539062,47.9453125 C93.3242166,46.1484285 92.8750023,44.4296957 92.40625,42.7890625 C91.8593723,40.8749904 91.2539096,38.921885 90.5898438,36.9296875 C89.6914018,33.4921703 88.7539111,30.3476705 87.7773438,27.4960938 C86.8007764,24.644517 86.0390652,22.3007904 85.4921875,20.4648438 C85.2578113,22.4570412 85.0820318,24.7421746 84.9648438,27.3203125 C84.8476557,29.8984504 84.7695314,32.4765496 84.7304688,35.0546875 C84.6914061,37.6328254 84.7109371,40.0644417 84.7890625,42.3496094 C84.8671879,44.6347771 84.9843742,46.4804617 85.140625,47.8867188 C85.1796877,48.4726592 85.2578119,49.0585908 85.375,49.6445312 C85.4531254,50.1523463 85.5605462,50.6699192 85.6972656,51.1972656 C85.8339851,51.724612 85.999999,52.2031229 86.1953125,52.6328125 C85.999999,52.7890633 85.7656264,52.9257807 85.4921875,53.0429688 C85.2187486,53.1601568 84.9257828,53.2578121 84.6132812,53.3359375 C84.261717,53.4531256 83.890627,53.5507809 83.5,53.6289062 C81.9765549,53.9414078 80.8730503,53.9023457 80.1894531,53.5117188 C79.505856,53.1210918 79.0859383,52.3398496 78.9296875,51.1679688 C78.8515621,50.5820283 78.7929689,49.4882893 78.7539062,47.8867188 C78.7148436,46.2851482 78.705078,44.4394636 78.7246094,42.3496094 C78.7441407,40.2597552 78.7929684,38.0625115 78.8710938,35.7578125 C78.9492191,33.4531135 79.0664055,31.3046975 79.2226562,29.3125 C79.378907,27.7109295 79.5351555,25.9726656 79.6914062,24.0976562 C79.847657,22.457023 80.0039055,20.5625107 80.1601562,18.4140625 C80.316407,16.2656143 80.4921865,13.9414188 80.6875,11.4414062 C80.8046881,11.2070301 80.9999986,11.001954 81.2734375,10.8261719 C81.5468764,10.6503897 81.8398422,10.5039068 82.1523438,10.3867188 C82.503908,10.230468 82.8945291,10.1132816 83.3242188,10.0351562 C83.9882846,9.91796816 84.5742162,9.82031289 85.0820312,9.7421875 C85.5117209,9.66406211 85.9121075,9.60546895 86.2832031,9.56640625 C86.6542987,9.52734355 86.8007816,9.52734355 86.7226562,9.56640625 C87.2304713,10.621099 87.6210924,11.490231 87.8945312,12.1738281 C88.1679701,12.8574253 88.4511704,13.6679641 88.7441406,14.6054688 C89.0371108,15.5429734 89.4082009,16.7734299 89.8574219,18.296875 C90.3066429,19.8203201 90.9609332,21.9492051 91.8203125,24.6835938 C92.9921934,28.4726752 93.9980427,31.7734234 94.8378906,34.5859375 C95.6777386,37.3984516 96.3124979,39.5468676 96.7421875,41.03125 C97.0156264,40.523435 97.2890611,39.9667999 97.5625,39.3613281 C97.8359389,38.7558563 98.1191392,38.0234418 98.4121094,37.1640625 C98.7050796,36.3046832 99.0175765,35.2988339 99.3496094,34.1464844 C99.6816423,32.9941349 100.062498,31.6171955 100.492188,30.015625 C101.039065,28.2578037 101.605466,26.3632914 102.191406,24.3320312 C102.660159,22.6132727 103.177732,20.6504017 103.744141,18.4433594 C104.31055,16.2363171 104.847654,13.9414182 105.355469,11.5585938 C106.605475,11.0507787 107.62109,10.6699231 108.402344,10.4160156 C109.183598,10.1621081 109.78906,9.95703203 110.21875,9.80078125 C110.726565,9.64453047 111.097655,9.5468752 111.332031,9.5078125 C111.566407,9.5468752 111.80078,9.66406152 112.035156,9.859375 C112.23047,10.0546885 112.464842,10.3281232 112.738281,10.6796875 C113.01172,11.0312518 113.304686,11.5585902 113.617188,12.2617188 L113.617188,19.0878906 C113.617188,20.6699298 113.597656,22.3788971 113.558594,24.2148438 C113.519531,26.0507904 113.490234,27.8964751 113.470703,29.7519531 C113.451172,31.6074312 113.431641,33.4140537 113.412109,35.171875 C113.392578,36.9296963 113.363281,38.4921807 113.324219,39.859375 C113.246093,41.9296979 113.236328,43.6874928 113.294922,45.1328125 C113.353516,46.5781322 113.470702,47.7792921 113.646484,48.7363281 C113.822267,49.6933642 114.056639,50.4648408 114.349609,51.0507812 C114.64258,51.6367217 115.003904,52.105467 115.433594,52.4570312 C115.316406,52.5351566 115.091799,52.6621085 114.759766,52.8378906 C114.427733,53.0136728 114.027346,53.1894522 113.558594,53.3652344 C113.089841,53.5410165 112.601565,53.6874994 112.09375,53.8046875 C111.585935,53.9218756 111.136721,53.9804688 110.746094,53.9804688 Z M136,46.0117188 C136.078125,46.2851576 136.195312,46.5390613 136.351562,46.7734375 C136.468751,46.968751 136.634765,47.154296 136.849609,47.3300781 C137.064454,47.5058603 137.328123,47.6132811 137.640625,47.6523438 C137.367186,48.1992215 137.093751,48.5703115 136.820312,48.765625 C136.664062,48.8828131 136.527344,48.9609373 136.410156,49 C136.058592,49.1171881 135.531254,49.1757812 134.828125,49.1757812 C134.124996,49.1757812 133.44141,48.9609396 132.777344,48.53125 C132.542968,48.3359365 132.328126,48.0429707 132.132812,47.6523438 C131.937499,47.3398422 131.771485,46.9003935 131.634766,46.3339844 C131.498046,45.7675753 131.390625,45.0351607 131.3125,44.1367188 C130.765622,45.3085996 130.150394,46.2363247 129.466797,46.9199219 C128.7832,47.603519 128.109378,48.1015609 127.445312,48.4140625 C126.703121,48.8437521 125.94141,49.0976559 125.160156,49.1757812 C124.183589,49.2539066 123.255864,49.0878927 122.376953,48.6777344 C121.498042,48.2675761 120.755862,47.6425823 120.150391,46.8027344 C119.544919,45.9628864 119.085939,44.9375061 118.773438,43.7265625 C118.460936,42.5156189 118.363281,41.1484451 118.480469,39.625 C118.597657,38.0234295 118.910154,36.5976625 119.417969,35.3476562 C119.925784,34.09765 120.531246,32.9843799 121.234375,32.0078125 C121.937504,31.0312451 122.679684,30.2011753 123.460938,29.5175781 C124.242191,28.833981 124.994137,28.2675804 125.716797,27.8183594 C126.439457,27.3691384 127.06445,27.0371104 127.591797,26.8222656 C128.119143,26.6074208 128.460937,26.4804689 128.617188,26.4414062 C129.046877,26.3242182 129.417967,26.2851561 129.730469,26.3242188 C130.04297,26.3632814 130.316405,26.5390609 130.550781,26.8515625 C130.628907,26.9687506 130.726562,27.105468 130.84375,27.2617188 C130.921875,27.4179695 131.019531,27.6230456 131.136719,27.8769531 C131.253907,28.1308606 131.351562,28.4140609 131.429688,28.7265625 C130.492183,29.1562521 129.613285,29.634763 128.792969,30.1621094 C127.972652,30.6894558 127.220707,31.324215 126.537109,32.0664062 C125.853512,32.8085975 125.257815,33.707026 124.75,34.7617188 C124.242185,35.8164115 123.851564,37.1054611 123.578125,38.6289062 C123.187498,40.5429783 123.294919,42.0859316 123.900391,43.2578125 C124.505862,44.4296934 125.335932,44.9179697 126.390625,44.7226562 C127.015628,44.5273428 127.621091,44.1562527 128.207031,43.609375 C128.714846,43.1406227 129.25195,42.4375047 129.818359,41.5 C130.384768,40.5624953 130.921872,39.2734457 131.429688,37.6328125 C131.625001,35.2890508 131.791015,33.4433661 131.927734,32.0957031 C132.064454,30.7480401 132.191406,29.7226598 132.308594,29.0195312 C132.464845,28.1992146 132.582031,27.6523451 132.660156,27.3789062 C132.777344,27.1835928 133.011717,26.9980478 133.363281,26.8222656 C133.714846,26.6464835 134.105467,26.5000006 134.535156,26.3828125 C134.964846,26.2656244 135.355467,26.1972657 135.707031,26.1777344 C136.058596,26.158203 136.292968,26.1679686 136.410156,26.2070312 C136.488282,26.2460939 136.527344,26.7246048 136.527344,27.6425781 C136.527344,28.5605515 136.498047,29.7128837 136.439453,31.0996094 C136.380859,32.4863351 136.3125,33.9902263 136.234375,35.6113281 C136.15625,37.23243 136.087891,38.7656178 136.029297,40.2109375 C135.970703,41.6562572 135.931641,42.9160103 135.912109,43.9902344 C135.892578,45.0644585 135.921875,45.7382799 136,46.0117188 Z M163.070312,21.9257812 C162.640623,21.8476559 162.064457,21.7695316 161.341797,21.6914062 C160.619137,21.6132809 159.886722,22.5546877 159.144531,22.515625 C158.285152,22.4765623 157.367192,22.4570312 156.390625,22.4570312 C155.414058,22.3789059 154.193367,22.3691403 152.728516,22.4277344 C151.263665,22.4863284 149.730477,22.515625 148.128906,22.515625 C148.089844,23.5312551 148.021485,24.566401 147.923828,25.6210938 C147.826171,26.6757865 147.738282,27.7109324 147.660156,28.7265625 C147.464843,30.6015719 147.298829,32.5156152 147.162109,34.46875 C147.02539,36.4218848 146.957031,38.277335 146.957031,40.0351562 C146.957031,41.7929775 147.064452,43.3847585 147.279297,44.8105469 C147.494142,46.2363353 147.894528,47.3593709 148.480469,48.1796875 C148.011716,48.5312518 147.503909,48.794921 146.957031,48.9707031 C146.410154,49.1464853 145.921877,49.2734371 145.492188,49.3515625 C144.984372,49.4687506 144.476565,49.5273438 143.96875,49.5273438 C143.499998,49.5273438 143.109377,49.3710953 142.796875,49.0585938 C142.484373,48.7460922 142.308594,48.1992227 142.269531,47.4179688 C142.191406,46.0898371 142.18164,44.7519599 142.240234,43.4042969 C142.298828,42.0566339 142.376953,40.6406324 142.474609,39.15625 C142.572266,37.6718676 142.679687,36.0800866 142.796875,34.3808594 C142.914063,32.6816321 143.031249,30.8164164 143.148438,28.7851562 C143.265626,26.6757707 143.324219,24.62501 143.324219,22.6328125 C141.839836,22.6718752 140.589849,22.6914062 139.574219,22.6914062 C138.558589,22.6914062 137.992188,22.6718752 137.875,22.6328125 C137.757812,22.5546871 137.621095,22.3789076 137.464844,22.1054687 C137.308593,21.8710926 137.103517,21.5195336 136.849609,21.0507812 C136.595702,20.5820289 136.273439,19.917973 135.882812,19.0585938 L138.314453,19.0585938 C139.193364,19.0585938 140.003903,19.0390627 140.746094,19 L143.324219,18.8828125 C143.285156,18.2578094 143.265625,17.5937535 143.265625,16.890625 C143.226562,16.3437473 143.207031,15.728519 143.207031,15.0449219 C143.207031,14.3613247 143.1875,13.7265654 143.148438,13.140625 C143.148438,12.9062488 143.431638,12.6230485 143.998047,12.2910156 C144.564456,11.9589827 145.179684,11.6562514 145.84375,11.3828125 C146.507816,11.1093736 147.123044,10.9335941 147.689453,10.8554687 C148.255862,10.7773434 148.539062,10.9140607 148.539062,11.265625 C148.539062,11.6171893 148.529297,12.4667901 148.509766,13.8144531 C148.490234,15.1621161 148.441407,16.7929592 148.363281,18.7070312 C148.753908,18.7070312 149.046874,18.6875002 149.242188,18.6484375 C151.31251,18.5703121 152.982416,18.4824224 154.251953,18.3847656 C155.521491,18.2871089 156.566402,18.2773434 157.386719,18.3554688 C158.207035,18.4335941 158.929684,18.6289047 159.554688,18.9414062 C160.179691,19.2539078 160.882809,19.7617152 161.664062,20.4648438 C161.937501,20.6992199 162.171874,19.9531236 162.367188,20.2265625 C162.562501,20.4609387 162.728515,20.7246079 162.865234,21.0175781 C163.001954,21.3105483 163.070312,21.6132797 163.070312,21.9257812 Z" id="Mat"></path>
                <path d="M174.90625,22.9257812 C174.47656,22.8476559 173.900394,22.7695316 173.177734,22.6914062 C172.455075,22.6132809 171.72266,22.5546877 170.980469,22.515625 C170.121089,22.4765623 169.20313,22.4570312 168.226562,22.4570312 C167.249995,22.3789059 166.029304,22.3691403 164.564453,22.4277344 C163.099602,22.4863284 161.566414,22.515625 159.964844,22.515625 C159.925781,23.5312551 159.857422,24.566401 159.759766,25.6210938 C159.662109,26.6757865 159.574219,27.7109324 159.496094,28.7265625 C159.30078,30.6015719 159.134766,32.5156152 158.998047,34.46875 C158.861327,36.4218848 158.792969,38.277335 158.792969,40.0351562 C158.792969,41.7929775 158.90039,43.3847585 159.115234,44.8105469 C159.330079,46.2363353 159.730466,47.3593709 160.316406,48.1796875 C159.847654,48.5312518 159.339846,48.794921 158.792969,48.9707031 C158.246091,49.1464853 157.757815,49.2734371 157.328125,49.3515625 C156.82031,49.4687506 156.312503,49.5273438 155.804688,49.5273438 C155.335935,49.5273438 154.945314,49.3710953 154.632812,49.0585938 C154.320311,48.7460922 154.144531,48.1992227 154.105469,47.4179688 C154.027343,46.0898371 154.017578,44.7519599 154.076172,43.4042969 C154.134766,42.0566339 154.21289,40.6406324 154.310547,39.15625 C154.408204,37.6718676 154.515624,36.0800866 154.632812,34.3808594 C154.750001,32.6816321 154.867187,30.8164164 154.984375,28.7851562 C155.101563,26.6757707 155.160156,24.62501 155.160156,22.6328125 C153.675774,22.6718752 152.425786,22.6914062 151.410156,22.6914062 C150.394526,22.6914062 149.828126,22.6718752 149.710938,22.6328125 C149.593749,22.5546871 149.457032,22.3789076 149.300781,22.1054688 C149.14453,21.8710926 148.939454,21.5195336 148.685547,21.0507812 C148.431639,20.5820289 148.109377,19.917973 147.71875,19.0585938 L150.150391,19.0585938 C151.029301,19.0585938 151.83984,19.0390627 152.582031,19 L155.160156,18.8828125 C155.121094,18.2578094 155.101562,17.5937535 155.101562,16.890625 C155.0625,16.3437473 155.042969,15.728519 155.042969,15.0449219 C155.042969,14.3613247 155.023438,13.7265654 154.984375,13.140625 C154.984375,12.9062488 155.267575,12.6230485 155.833984,12.2910156 C156.400393,11.9589827 157.015622,11.6562514 157.679688,11.3828125 C158.343753,11.1093736 158.958982,10.9335941 159.525391,10.8554688 C160.0918,10.7773434 160.375,10.9140607 160.375,11.265625 C160.375,11.6171893 160.365234,12.4667901 160.345703,13.8144531 C160.326172,15.1621161 160.277344,16.7929592 160.199219,18.7070312 C160.589846,18.7070312 160.882812,18.6875002 161.078125,18.6484375 C163.148448,18.5703121 164.818353,18.4824224 166.087891,18.3847656 C167.357428,18.2871089 168.40234,18.2773434 169.222656,18.3554688 C170.042973,18.4335941 170.765622,18.6289047 171.390625,18.9414062 C172.015628,19.2539078 172.718746,19.7617152 173.5,20.4648438 C173.773439,20.6992199 174.007812,20.9531236 174.203125,21.2265625 C174.398438,21.4609387 174.564452,21.7246079 174.701172,22.0175781 C174.837891,22.3105483 174.90625,22.6132797 174.90625,22.9257812 Z M172.914062,49.6445312 C170.179674,49.6445312 168.07032,48.7265717 166.585938,46.890625 C165.101555,45.0546783 164.359375,42.6523586 164.359375,39.6835938 C164.359375,37.6132709 164.662106,35.669931 165.267578,33.8535156 C165.87305,32.0371003 166.683589,30.4648504 167.699219,29.1367188 C168.714849,27.8085871 169.896478,26.7636757 171.244141,26.0019531 C172.591804,25.2402306 174.007805,24.859375 175.492188,24.859375 C176.937507,24.859375 178.167964,25.3769479 179.183594,26.4121094 C180.199224,27.4472708 180.707031,28.9218654 180.707031,30.8359375 C180.707031,32.0859437 180.433596,33.3261657 179.886719,34.5566406 C179.339841,35.7871155 178.626958,36.8808546 177.748047,37.8378906 C176.869136,38.7949267 175.902349,39.5664033 174.847656,40.1523438 C173.792963,40.7382842 172.777349,41.03125 171.800781,41.03125 C171.175778,41.03125 170.64844,40.9531258 170.21875,40.796875 C169.78906,40.6406242 169.398439,40.4062516 169.046875,40.09375 C169.164063,42.3203236 169.652339,43.8730425 170.511719,44.7519531 C171.371098,45.6308638 172.484368,46.0703125 173.851562,46.0703125 C174.789067,46.0703125 175.619137,45.875002 176.341797,45.484375 C177.064457,45.093748 177.679685,44.6445338 178.1875,44.1367188 C178.695315,43.6289037 179.105467,43.1113308 179.417969,42.5839844 C179.73047,42.056638 179.945312,41.6562514 180.0625,41.3828125 C180.179688,41.1484363 180.384764,41.03125 180.677734,41.03125 C180.970705,41.03125 181.117188,41.2656227 181.117188,41.734375 C181.117188,42.1640646 180.970705,42.818355 180.677734,43.6972656 C180.384764,44.5761763 179.906253,45.4550737 179.242188,46.3339844 C178.578122,47.212895 177.728521,47.9843717 176.693359,48.6484375 C175.658198,49.3125033 174.398445,49.6445312 172.914062,49.6445312 Z M175.609375,27.3789062 C175.374999,27.3789062 174.93555,27.6230444 174.291016,28.1113281 C173.646481,28.5996118 172.962894,29.3124953 172.240234,30.25 C171.517575,31.1875047 170.853519,32.3105403 170.248047,33.6191406 C169.642575,34.9277409 169.26172,36.4023355 169.105469,38.0429688 C171.44923,37.496091 173.304681,36.6367246 174.671875,35.4648438 C176.039069,34.2929629 176.722656,32.5742301 176.722656,30.3085938 C176.722656,29.1757756 176.585939,28.4042989 176.3125,27.9941406 C176.039061,27.5839823 175.804688,27.3789062 175.609375,27.3789062 Z M200.394531,31.0117188 C200.394531,31.5585965 200.248048,32.1152315 199.955078,32.6816406 C199.662108,33.2480497 199.300783,33.7851537 198.871094,34.2929688 C198.441404,34.8007838 197.962893,35.2402325 197.435547,35.6113281 C196.9082,35.9824237 196.410159,36.2070309 195.941406,36.2851562 C196.253908,35.0742127 196.351563,34.1367221 196.234375,33.4726562 C196.117187,32.8085904 195.921876,32.3203141 195.648438,32.0078125 C195.335936,31.6562482 194.945315,31.4609377 194.476562,31.421875 C193.773434,31.421875 193.099613,31.8222616 192.455078,32.6230469 C191.810544,33.4238321 191.253909,34.4003849 190.785156,35.5527344 C190.316404,36.7050839 189.945314,37.9355403 189.671875,39.2441406 C189.398436,40.5527409 189.261719,41.7343697 189.261719,42.7890625 C189.222656,43.5312537 189.242187,44.2539027 189.320312,44.9570312 C189.359375,45.5429717 189.427734,46.1484344 189.525391,46.7734375 C189.623047,47.3984406 189.76953,47.886717 189.964844,48.2382812 C189.730468,48.4335947 189.349612,48.6679674 188.822266,48.9414062 C188.294919,49.2148451 187.74805,49.3906246 187.181641,49.46875 C186.615232,49.5468754 186.107424,49.4492201 185.658203,49.1757812 C185.208982,48.9023424 184.964844,48.3164107 184.925781,47.4179688 C184.847656,46.5585895 184.798828,45.5918022 184.779297,44.5175781 C184.759766,43.443354 184.759766,42.369146 184.779297,41.2949219 C184.798828,40.2206978 184.828125,39.1562553 184.867188,38.1015625 C184.90625,37.0468697 184.964843,36.070317 185.042969,35.171875 C185.121094,33.4531164 185.160156,32.1250047 185.160156,31.1875 C185.160156,30.2499953 185.140625,29.3515668 185.101562,28.4921875 C185.101562,28.3359367 185.365232,28.1113296 185.892578,27.8183594 C186.419925,27.5253892 187.005856,27.2617199 187.650391,27.0273438 C188.294925,26.7929676 188.890622,26.6562502 189.4375,26.6171875 C189.984378,26.5781248 190.257812,26.6953111 190.257812,26.96875 C190.257812,27.3984396 190.208985,28.2480405 190.111328,29.5175781 C190.013671,30.7871157 189.88672,32.1054619 189.730469,33.4726562 C190.003908,32.730465 190.365232,31.9296918 190.814453,31.0703125 C191.263674,30.2109332 191.781247,29.41016 192.367188,28.6679688 C192.953128,27.9257775 193.617184,27.3105493 194.359375,26.8222656 C195.101566,26.3339819 195.921871,26.0898438 196.820312,26.0898438 C197.523441,26.0898438 198.099607,26.3046854 198.548828,26.734375 C198.998049,27.1640646 199.359374,27.652341 199.632812,28.1992188 C199.906251,28.7460965 200.101562,29.292966 200.21875,29.8398438 C200.335938,30.3867215 200.394531,30.7773426 200.394531,31.0117188 Z M215.160156,8.98046875 C216.644539,8.98046875 218.187492,9.21484141 219.789062,9.68359375 C221.390633,10.1523461 222.865228,10.9042917 224.212891,11.9394531 C225.560554,12.9746146 226.664058,14.3222573 227.523438,15.9824219 C228.382817,17.6425864 228.8125,19.6640506 228.8125,22.046875 C228.8125,24.1953232 228.412113,26.2851461 227.611328,28.3164062 C226.810543,30.3476664 225.677742,32.2031166 224.212891,33.8828125 C222.74804,35.5625084 220.980479,36.9980409 218.910156,38.1894531 C216.839833,39.3808653 214.535169,40.1914041 211.996094,40.6210938 C211.996094,42.2226643 212.054687,43.6093691 212.171875,44.78125 C212.210938,45.8750055 212.259765,46.8027306 212.318359,47.5644531 C212.376953,48.3261757 212.435547,48.980466 212.494141,49.5273438 C212.552735,50.0742215 212.621093,50.5722634 212.699219,51.0214844 C212.777344,51.4707054 212.874999,51.9101541 212.992188,52.3398438 C212.210934,52.9257842 211.468754,53.3554674 210.765625,53.6289062 C210.062496,53.9023451 209.437503,54.0976557 208.890625,54.2148438 C208.265622,54.3710945 207.67969,54.4101566 207.132812,54.3320312 C206.937499,53.8242162 206.76172,53.2675812 206.605469,52.6621094 C206.449218,52.0566376 206.341797,51.2656299 206.283203,50.2890625 C206.224609,49.3124951 206.195312,48.0722731 206.195312,46.5683594 C206.195312,45.0644456 206.234375,43.1406367 206.3125,40.796875 C205.999998,40.7578123 205.667971,40.7285157 205.316406,40.7089844 C204.964842,40.689453 204.632814,40.6406254 204.320312,40.5625 C204.046874,39.9374969 203.871094,39.3906273 203.792969,38.921875 C203.714843,38.4531227 203.675781,38.0625016 203.675781,37.75 C203.675781,37.359373 203.714843,37.0468762 203.792969,36.8125 C204.10547,36.8515627 204.417967,36.8808593 204.730469,36.9003906 C205.04297,36.919922 205.335936,36.9296875 205.609375,36.9296875 C205.921877,36.9687502 206.214842,36.9882812 206.488281,36.9882812 C206.566407,35.1913973 206.654296,33.3261815 206.751953,31.3925781 C206.84961,29.4589747 206.927734,27.5742279 206.986328,25.7382812 C207.044922,23.9023346 207.103515,22.1347741 207.162109,20.4355469 C207.220703,18.7363196 207.269531,17.2226629 207.308594,15.8945312 C206.136713,16.6757852 205.111333,17.6914 204.232422,18.9414062 C203.353511,20.1914125 202.777345,21.6367105 202.503906,23.2773438 C201.996091,23.1992184 201.566408,22.9550802 201.214844,22.5449219 C200.863279,22.1347636 200.570314,21.7148459 200.335938,21.2851562 C200.062499,20.7773412 199.828126,20.2109406 199.632812,19.5859375 C199.437499,18.8437463 199.427733,18.0918007 199.603516,17.3300781 C199.779298,16.5683556 200.062498,15.8457065 200.453125,15.1621094 C200.843752,14.4785122 201.292966,13.8730495 201.800781,13.3457031 C202.308596,12.8183567 202.796873,12.3984391 203.265625,12.0859375 C204.125004,11.5781225 204.984371,11.1191427 205.84375,10.7089844 C206.703129,10.2988261 207.679682,9.95703262 208.773438,9.68359375 C209.203127,9.2539041 209.681638,8.86328301 210.208984,8.51171875 C210.736331,8.16015449 211.253904,7.94531289 211.761719,7.8671875 C212.386722,7.71093672 212.738281,8.12108887 212.816406,9.09765625 C213.167971,9.05859355 213.539061,9.02929697 213.929688,9.00976562 C214.320314,8.99023428 214.730467,8.98046875 215.160156,8.98046875 Z M211.996094,36.2265625 C213.050787,35.9140609 214.203119,35.4453156 215.453125,34.8203125 C216.703131,34.1953094 217.874995,33.3652396 218.96875,32.3300781 C220.062505,31.2949167 220.980465,30.0156326 221.722656,28.4921875 C222.464847,26.9687424 222.835938,25.1328232 222.835938,22.984375 C222.835938,21.3437418 222.552737,19.9472714 221.986328,18.7949219 C221.419919,17.6425724 220.687504,16.7050817 219.789062,15.9824219 C218.890621,15.259762 217.904302,14.7324235 216.830078,14.4003906 C215.755854,14.0683577 214.691412,13.9023438 213.636719,13.9023438 L213.050781,13.9023438 C212.855468,13.9023438 212.660157,13.9218748 212.464844,13.9609375 C212.347656,15.2109437 212.289062,16.5585865 212.289062,18.0039062 C212.289062,18.9804736 212.269531,20.1621024 212.230469,21.5488281 C212.191406,22.9355538 212.152344,24.4296795 212.113281,26.03125 C212.074219,27.6328205 212.044922,29.3124912 212.025391,31.0703125 C212.005859,32.8281338 211.996094,34.5468666 211.996094,36.2265625 Z M245.980469,38.921875 C245.902343,40.4453201 245.638674,41.8515561 245.189453,43.140625 C244.740232,44.4296939 244.125004,45.5527296 243.34375,46.5097656 C242.562496,47.4668017 241.634771,48.2187473 240.560547,48.765625 C239.486323,49.3125027 238.304694,49.6054686 237.015625,49.6445312 C235.882807,49.6835939 234.818364,49.4101592 233.822266,48.8242188 C232.826167,48.2382783 231.957035,47.417974 231.214844,46.3632812 C230.472653,45.3085885 229.916017,44.0488354 229.544922,42.5839844 C229.173826,41.1191333 229.066405,39.5273523 229.222656,37.8085938 C229.339844,35.8163963 229.710934,34.107429 230.335938,32.6816406 C230.960941,31.2558522 231.624996,30.0742234 232.328125,29.1367188 C233.031254,28.1992141 233.685544,27.5058616 234.291016,27.0566406 C234.896487,26.6074196 235.277343,26.3437504 235.433594,26.265625 C235.707033,26.1484369 235.960936,26.1191403 236.195312,26.1777344 C236.429689,26.2363284 236.683592,26.3046871 236.957031,26.3828125 C237.035157,26.4218752 237.113281,26.5195305 237.191406,26.6757813 C237.347657,26.9492201 237.445312,27.4570275 237.484375,28.1992188 C237.679688,27.7695291 237.933592,27.4179701 238.246094,27.1445312 C238.558595,26.8710924 238.871092,26.6757818 239.183594,26.5585938 C239.574221,26.402343 239.964842,26.3046877 240.355469,26.265625 C240.628908,26.2265623 241.107418,26.4414039 241.791016,26.9101563 C242.474613,27.3789086 243.138669,28.1210887 243.783203,29.1367188 C244.427738,30.1523488 244.984373,31.470695 245.453125,33.0917969 C245.921877,34.7128987 246.097657,36.6562387 245.980469,38.921875 Z M241.996094,38.21875 C242.035156,37.2812453 242.00586,36.3339892 241.908203,35.3769531 C241.810546,34.4199171 241.654298,33.5410196 241.439453,32.7402344 C241.224608,31.9394491 240.960939,31.2949243 240.648438,30.8066406 C240.335936,30.3183569 240.023439,30.0742188 239.710938,30.0742188 C239.359373,30.1523441 238.968752,30.3281236 238.539062,30.6015625 C238.187498,30.8359387 237.796877,31.2070287 237.367188,31.7148438 C236.937498,32.2226588 236.527346,32.9453078 236.136719,33.8828125 C236.097656,33.7656244 236.058594,33.5507828 236.019531,33.2382812 C235.980469,32.9648424 235.951172,32.6035179 235.931641,32.1542969 C235.912109,31.7050759 235.941406,31.0898477 236.019531,30.3085938 C235.472654,30.9726596 235.052736,31.7539018 234.759766,32.6523438 C234.466795,33.5507857 234.242188,34.4101521 234.085938,35.2304688 C233.929687,36.2070361 233.8125,37.1835889 233.734375,38.1601562 C233.695312,39.214849 233.74414,40.2499949 233.880859,41.265625 C234.017579,42.2812551 234.251951,43.1796836 234.583984,43.9609375 C234.916017,44.7421914 235.316404,45.3671852 235.785156,45.8359375 C236.253909,46.3046898 236.820309,46.5195314 237.484375,46.4804688 C238.148441,46.4414061 238.734372,46.1679713 239.242188,45.6601562 C239.750003,45.1523412 240.199217,44.5078164 240.589844,43.7265625 C240.980471,42.9453086 241.292968,42.0664111 241.527344,41.0898438 C241.76172,40.1132764 241.917968,39.1562547 241.996094,38.21875 Z M256.761719,11.03125 C256.683593,12.437507 256.546876,14.0585846 256.351562,15.8945312 C256.156249,17.7304779 255.951173,19.7031145 255.736328,21.8125 C255.521483,23.9218855 255.306642,26.1288947 255.091797,28.4335938 C254.876952,30.7382928 254.691407,33.0624883 254.535156,35.40625 C254.378905,37.7500117 254.310547,39.6542896 254.330078,41.1191406 C254.349609,42.5839917 254.437499,43.7851516 254.59375,44.7226562 C254.750001,45.6601609 254.964842,46.402341 255.238281,46.9492188 C255.51172,47.4960965 255.863279,48.023435 256.292969,48.53125 C255.785154,48.8437516 255.316408,49.0781242 254.886719,49.234375 C254.457029,49.3906258 254.085939,49.5078121 253.773438,49.5859375 C253.382811,49.7031256 253.031252,49.7617188 252.71875,49.7617188 C252.13281,49.7617188 251.625002,49.4785185 251.195312,48.9121094 C250.765623,48.3457003 250.423829,47.6132857 250.169922,46.7148438 C249.916014,45.8164018 249.720704,44.8105524 249.583984,43.6972656 C249.447265,42.5839788 249.378906,41.4804742 249.378906,40.3867188 C249.378906,39.2148379 249.417968,37.8574296 249.496094,36.3144531 C249.574219,34.7714767 249.662109,33.1308681 249.759766,31.3925781 C249.857422,29.6542882 249.964843,27.8379001 250.082031,25.9433594 C250.199219,24.0488187 250.296875,22.1640719 250.375,20.2890625 C250.453125,18.8437428 250.53125,17.5351621 250.609375,16.3632812 C250.6875,15.3476512 250.746094,14.4199261 250.785156,13.5800781 C250.824219,12.7402302 250.804688,12.2421883 250.726562,12.0859375 C250.960939,11.7734359 251.253904,11.5390633 251.605469,11.3828125 C251.957033,11.2265617 252.289061,11.0898443 252.601562,10.9726562 C252.992189,10.8554682 253.382811,10.7578129 253.773438,10.6796875 L254.886719,10.6796875 C255.19922,10.6796875 255.531248,10.7089841 255.882812,10.7675781 C256.234377,10.8261722 256.527343,10.9140619 256.761719,11.03125 Z M267.132812,11.03125 C267.054687,12.437507 266.91797,14.0585846 266.722656,15.8945312 C266.527343,17.7304779 266.322267,19.7031145 266.107422,21.8125 C265.892577,23.9218855 265.677735,26.1288947 265.462891,28.4335938 C265.248046,30.7382928 265.062501,33.0624883 264.90625,35.40625 C264.749999,37.7500117 264.681641,39.6542896 264.701172,41.1191406 C264.720703,42.5839917 264.808593,43.7851516 264.964844,44.7226562 C265.121095,45.6601609 265.335936,46.402341 265.609375,46.9492188 C265.882814,47.4960965 266.234373,48.023435 266.664062,48.53125 C266.156247,48.8437516 265.687502,49.0781242 265.257812,49.234375 C264.828123,49.3906258 264.457033,49.5078121 264.144531,49.5859375 C263.753904,49.7031256 263.402345,49.7617188 263.089844,49.7617188 C262.503903,49.7617188 261.996096,49.4785185 261.566406,48.9121094 C261.136717,48.3457003 260.794923,47.6132857 260.541016,46.7148438 C260.287108,45.8164018 260.091798,44.8105524 259.955078,43.6972656 C259.818359,42.5839788 259.75,41.4804742 259.75,40.3867188 C259.75,39.2148379 259.789062,37.8574296 259.867188,36.3144531 C259.945313,34.7714767 260.033203,33.1308681 260.130859,31.3925781 C260.228516,29.6542882 260.335937,27.8379001 260.453125,25.9433594 C260.570313,24.0488187 260.667968,22.1640719 260.746094,20.2890625 C260.824219,18.8437428 260.902343,17.5351621 260.980469,16.3632812 C261.058594,15.3476512 261.117187,14.4199261 261.15625,13.5800781 C261.195313,12.7402302 261.175782,12.2421883 261.097656,12.0859375 C261.332032,11.7734359 261.624998,11.5390633 261.976562,11.3828125 C262.328127,11.2265617 262.660155,11.0898443 262.972656,10.9726562 C263.363283,10.8554682 263.753904,10.7578129 264.144531,10.6796875 L265.257812,10.6796875 C265.570314,10.6796875 265.902342,10.7089841 266.253906,10.7675781 C266.605471,10.8261722 266.898436,10.9140619 267.132812,11.03125 Z" id="terPoll"></path>
            </g>
        </g>
    </g>
</svg>